<mxfile host="Electron" agent="Mozilla/5.0 (Macintosh; Intel Mac OS X 10_15_7) AppleWebKit/537.36 (KHTML, like Gecko) draw.io/24.7.17 Chrome/128.0.6613.36 Electron/32.0.1 Safari/537.36" version="24.7.17">
  <diagram name="Seite-1" id="vxKh6G6KHQxjKhKFXu0W">
    <mxGraphModel dx="1853" dy="772" grid="1" gridSize="10" guides="1" tooltips="1" connect="1" arrows="1" fold="1" page="1" pageScale="1" pageWidth="827" pageHeight="1169" math="0" shadow="0">
      <root>
        <mxCell id="0" />
        <mxCell id="1" parent="0" />
        <mxCell id="fLtBAiW2MONKm0dWIwBf-2" value="name" style="ellipse;whiteSpace=wrap;html=1;align=center;fontStyle=4;" vertex="1" parent="1">
          <mxGeometry x="450" y="240" width="100" height="40" as="geometry" />
        </mxCell>
        <mxCell id="fLtBAiW2MONKm0dWIwBf-3" value="" style="endArrow=none;html=1;rounded=0;exitX=0.72;exitY=0.95;exitDx=0;exitDy=0;exitPerimeter=0;entryX=0.43;entryY=0.05;entryDx=0;entryDy=0;entryPerimeter=0;" edge="1" parent="1" target="fLtBAiW2MONKm0dWIwBf-4">
          <mxGeometry relative="1" as="geometry">
            <mxPoint x="520" y="278" as="sourcePoint" />
            <mxPoint x="621.04" y="342" as="targetPoint" />
          </mxGeometry>
        </mxCell>
        <mxCell id="fLtBAiW2MONKm0dWIwBf-4" value="Branch" style="whiteSpace=wrap;html=1;align=center;" vertex="1" parent="1">
          <mxGeometry x="578" y="360" width="100" height="40" as="geometry" />
        </mxCell>
        <mxCell id="fLtBAiW2MONKm0dWIwBf-5" value="address" style="ellipse;whiteSpace=wrap;html=1;align=center;" vertex="1" parent="1">
          <mxGeometry x="578" y="240" width="100" height="40" as="geometry" />
        </mxCell>
        <mxCell id="fLtBAiW2MONKm0dWIwBf-6" value="" style="endArrow=none;html=1;rounded=0;entryX=0.5;entryY=1;entryDx=0;entryDy=0;exitX=0.5;exitY=0;exitDx=0;exitDy=0;" edge="1" parent="1" source="fLtBAiW2MONKm0dWIwBf-4" target="fLtBAiW2MONKm0dWIwBf-5">
          <mxGeometry relative="1" as="geometry">
            <mxPoint x="568" y="410" as="sourcePoint" />
            <mxPoint x="728" y="410" as="targetPoint" />
          </mxGeometry>
        </mxCell>
        <mxCell id="fLtBAiW2MONKm0dWIwBf-26" value="Storage" style="whiteSpace=wrap;html=1;align=center;" vertex="1" parent="1">
          <mxGeometry x="90" y="360" width="100" height="40" as="geometry" />
        </mxCell>
        <mxCell id="fLtBAiW2MONKm0dWIwBf-27" value="" style="endArrow=none;html=1;rounded=0;exitX=1;exitY=0.5;exitDx=0;exitDy=0;entryX=0;entryY=0.5;entryDx=0;entryDy=0;" edge="1" parent="1" source="fLtBAiW2MONKm0dWIwBf-26" target="fLtBAiW2MONKm0dWIwBf-4">
          <mxGeometry relative="1" as="geometry">
            <mxPoint x="380" y="400" as="sourcePoint" />
            <mxPoint x="540" y="400" as="targetPoint" />
          </mxGeometry>
        </mxCell>
        <mxCell id="fLtBAiW2MONKm0dWIwBf-28" value="has a" style="shape=rhombus;perimeter=rhombusPerimeter;whiteSpace=wrap;html=1;align=center;" vertex="1" parent="1">
          <mxGeometry x="310" y="350" width="120" height="60" as="geometry" />
        </mxCell>
        <mxCell id="fLtBAiW2MONKm0dWIwBf-29" value="StorageId" style="ellipse;whiteSpace=wrap;html=1;align=center;fontStyle=4;" vertex="1" parent="1">
          <mxGeometry x="-40" y="250" width="100" height="40" as="geometry" />
        </mxCell>
        <mxCell id="fLtBAiW2MONKm0dWIwBf-31" value="" style="endArrow=none;html=1;rounded=0;exitX=0.5;exitY=1;exitDx=0;exitDy=0;entryX=0.5;entryY=0;entryDx=0;entryDy=0;" edge="1" parent="1" source="fLtBAiW2MONKm0dWIwBf-29" target="fLtBAiW2MONKm0dWIwBf-26">
          <mxGeometry relative="1" as="geometry">
            <mxPoint x="380" y="400" as="sourcePoint" />
            <mxPoint x="540" y="400" as="targetPoint" />
          </mxGeometry>
        </mxCell>
        <mxCell id="fLtBAiW2MONKm0dWIwBf-32" value="Quantity" style="ellipse;whiteSpace=wrap;html=1;align=center;" vertex="1" parent="1">
          <mxGeometry x="10" y="190" width="100" height="40" as="geometry" />
        </mxCell>
        <mxCell id="fLtBAiW2MONKm0dWIwBf-33" value="" style="endArrow=none;html=1;rounded=0;exitX=0.5;exitY=0;exitDx=0;exitDy=0;entryX=0.57;entryY=1.075;entryDx=0;entryDy=0;entryPerimeter=0;" edge="1" parent="1" source="fLtBAiW2MONKm0dWIwBf-26" target="fLtBAiW2MONKm0dWIwBf-32">
          <mxGeometry relative="1" as="geometry">
            <mxPoint x="380" y="400" as="sourcePoint" />
            <mxPoint x="540" y="400" as="targetPoint" />
          </mxGeometry>
        </mxCell>
        <mxCell id="fLtBAiW2MONKm0dWIwBf-34" value="Branch" style="ellipse;whiteSpace=wrap;html=1;align=center;" vertex="1" parent="1">
          <mxGeometry x="100" y="220" width="100" height="40" as="geometry" />
        </mxCell>
        <mxCell id="fLtBAiW2MONKm0dWIwBf-35" style="edgeStyle=orthogonalEdgeStyle;rounded=0;orthogonalLoop=1;jettySize=auto;html=1;exitX=0.5;exitY=1;exitDx=0;exitDy=0;" edge="1" parent="1" source="fLtBAiW2MONKm0dWIwBf-26" target="fLtBAiW2MONKm0dWIwBf-26">
          <mxGeometry relative="1" as="geometry" />
        </mxCell>
        <mxCell id="fLtBAiW2MONKm0dWIwBf-36" value="" style="endArrow=none;html=1;rounded=0;exitX=0.5;exitY=0;exitDx=0;exitDy=0;entryX=0.5;entryY=1;entryDx=0;entryDy=0;" edge="1" parent="1" source="fLtBAiW2MONKm0dWIwBf-26" target="fLtBAiW2MONKm0dWIwBf-34">
          <mxGeometry relative="1" as="geometry">
            <mxPoint x="380" y="400" as="sourcePoint" />
            <mxPoint x="540" y="400" as="targetPoint" />
          </mxGeometry>
        </mxCell>
        <mxCell id="fLtBAiW2MONKm0dWIwBf-38" value="Cost" style="ellipse;whiteSpace=wrap;html=1;align=center;" vertex="1" parent="1">
          <mxGeometry x="160" y="260" width="100" height="40" as="geometry" />
        </mxCell>
        <mxCell id="fLtBAiW2MONKm0dWIwBf-39" value="" style="endArrow=none;html=1;rounded=0;entryX=0.5;entryY=1;entryDx=0;entryDy=0;exitX=0.5;exitY=0;exitDx=0;exitDy=0;" edge="1" parent="1" source="fLtBAiW2MONKm0dWIwBf-26" target="fLtBAiW2MONKm0dWIwBf-38">
          <mxGeometry relative="1" as="geometry">
            <mxPoint x="165" y="360" as="sourcePoint" />
            <mxPoint x="540" y="410" as="targetPoint" />
          </mxGeometry>
        </mxCell>
        <mxCell id="fLtBAiW2MONKm0dWIwBf-43" value="Name" style="ellipse;whiteSpace=wrap;html=1;align=center;" vertex="1" parent="1">
          <mxGeometry x="-30" y="470" width="100" height="40" as="geometry" />
        </mxCell>
        <mxCell id="fLtBAiW2MONKm0dWIwBf-45" value="" style="endArrow=none;html=1;rounded=0;exitX=0.5;exitY=1;exitDx=0;exitDy=0;entryX=0.5;entryY=0;entryDx=0;entryDy=0;" edge="1" parent="1" source="fLtBAiW2MONKm0dWIwBf-26" target="fLtBAiW2MONKm0dWIwBf-43">
          <mxGeometry relative="1" as="geometry">
            <mxPoint x="380" y="410" as="sourcePoint" />
            <mxPoint x="540" y="410" as="targetPoint" />
          </mxGeometry>
        </mxCell>
        <mxCell id="fLtBAiW2MONKm0dWIwBf-46" value="Order" style="whiteSpace=wrap;html=1;align=center;" vertex="1" parent="1">
          <mxGeometry x="860" y="360" width="100" height="40" as="geometry" />
        </mxCell>
        <mxCell id="fLtBAiW2MONKm0dWIwBf-47" value="OrderId" style="ellipse;whiteSpace=wrap;html=1;align=center;fontStyle=4;" vertex="1" parent="1">
          <mxGeometry x="760" y="240" width="100" height="40" as="geometry" />
        </mxCell>
        <mxCell id="fLtBAiW2MONKm0dWIwBf-48" value="" style="endArrow=none;html=1;rounded=0;entryX=0.5;entryY=1;entryDx=0;entryDy=0;exitX=0.5;exitY=0;exitDx=0;exitDy=0;" edge="1" parent="1" source="fLtBAiW2MONKm0dWIwBf-46" target="fLtBAiW2MONKm0dWIwBf-47">
          <mxGeometry relative="1" as="geometry">
            <mxPoint x="390" y="450" as="sourcePoint" />
            <mxPoint x="550" y="450" as="targetPoint" />
          </mxGeometry>
        </mxCell>
        <mxCell id="fLtBAiW2MONKm0dWIwBf-49" value="Status" style="ellipse;whiteSpace=wrap;html=1;align=center;" vertex="1" parent="1">
          <mxGeometry x="870" y="240" width="100" height="40" as="geometry" />
        </mxCell>
        <mxCell id="fLtBAiW2MONKm0dWIwBf-50" value="" style="endArrow=none;html=1;rounded=0;exitX=0.5;exitY=1;exitDx=0;exitDy=0;entryX=0.5;entryY=0;entryDx=0;entryDy=0;" edge="1" parent="1" source="fLtBAiW2MONKm0dWIwBf-49" target="fLtBAiW2MONKm0dWIwBf-46">
          <mxGeometry relative="1" as="geometry">
            <mxPoint x="390" y="450" as="sourcePoint" />
            <mxPoint x="550" y="450" as="targetPoint" />
          </mxGeometry>
        </mxCell>
        <mxCell id="fLtBAiW2MONKm0dWIwBf-52" value="" style="endArrow=none;html=1;rounded=0;exitX=0.5;exitY=0;exitDx=0;exitDy=0;entryX=0.42;entryY=1.05;entryDx=0;entryDy=0;entryPerimeter=0;" edge="1" parent="1" source="fLtBAiW2MONKm0dWIwBf-46" target="fLtBAiW2MONKm0dWIwBf-53">
          <mxGeometry relative="1" as="geometry">
            <mxPoint x="870" y="450" as="sourcePoint" />
            <mxPoint x="1050" y="300" as="targetPoint" />
          </mxGeometry>
        </mxCell>
        <mxCell id="fLtBAiW2MONKm0dWIwBf-53" value="Price" style="ellipse;whiteSpace=wrap;html=1;align=center;" vertex="1" parent="1">
          <mxGeometry x="980" y="240" width="100" height="40" as="geometry" />
        </mxCell>
        <mxCell id="fLtBAiW2MONKm0dWIwBf-54" value="ProductName" style="ellipse;whiteSpace=wrap;html=1;align=center;" vertex="1" parent="1">
          <mxGeometry x="860" y="480" width="100" height="40" as="geometry" />
        </mxCell>
        <mxCell id="fLtBAiW2MONKm0dWIwBf-55" value="" style="endArrow=none;html=1;rounded=0;exitX=0.5;exitY=0;exitDx=0;exitDy=0;entryX=0.5;entryY=1;entryDx=0;entryDy=0;" edge="1" parent="1" source="fLtBAiW2MONKm0dWIwBf-54" target="fLtBAiW2MONKm0dWIwBf-46">
          <mxGeometry relative="1" as="geometry">
            <mxPoint x="870" y="450" as="sourcePoint" />
            <mxPoint x="1030" y="450" as="targetPoint" />
          </mxGeometry>
        </mxCell>
        <mxCell id="fLtBAiW2MONKm0dWIwBf-60" value="" style="endArrow=none;html=1;rounded=0;exitX=0.5;exitY=1;exitDx=0;exitDy=0;entryX=0.43;entryY=-0.1;entryDx=0;entryDy=0;entryPerimeter=0;" edge="1" parent="1" source="fLtBAiW2MONKm0dWIwBf-46" target="fLtBAiW2MONKm0dWIwBf-61">
          <mxGeometry relative="1" as="geometry">
            <mxPoint x="870" y="450" as="sourcePoint" />
            <mxPoint x="950" y="470" as="targetPoint" />
          </mxGeometry>
        </mxCell>
        <mxCell id="fLtBAiW2MONKm0dWIwBf-61" value="Ingredients" style="ellipse;whiteSpace=wrap;html=1;align=center;" vertex="1" parent="1">
          <mxGeometry x="960" y="480" width="100" height="40" as="geometry" />
        </mxCell>
        <mxCell id="fLtBAiW2MONKm0dWIwBf-62" value="Customer" style="ellipse;whiteSpace=wrap;html=1;align=center;" vertex="1" parent="1">
          <mxGeometry x="750" y="480" width="100" height="40" as="geometry" />
        </mxCell>
        <mxCell id="fLtBAiW2MONKm0dWIwBf-63" value="" style="endArrow=none;html=1;rounded=0;exitX=0.5;exitY=0;exitDx=0;exitDy=0;entryX=0.44;entryY=0.975;entryDx=0;entryDy=0;entryPerimeter=0;" edge="1" parent="1" source="fLtBAiW2MONKm0dWIwBf-62" target="fLtBAiW2MONKm0dWIwBf-46">
          <mxGeometry relative="1" as="geometry">
            <mxPoint x="790" y="330" as="sourcePoint" />
            <mxPoint x="950" y="330" as="targetPoint" />
          </mxGeometry>
        </mxCell>
        <mxCell id="fLtBAiW2MONKm0dWIwBf-67" value="" style="endArrow=none;html=1;rounded=0;exitX=1;exitY=0.5;exitDx=0;exitDy=0;entryX=0;entryY=0.5;entryDx=0;entryDy=0;" edge="1" parent="1" source="fLtBAiW2MONKm0dWIwBf-68" target="fLtBAiW2MONKm0dWIwBf-46">
          <mxGeometry relative="1" as="geometry">
            <mxPoint x="790" y="330" as="sourcePoint" />
            <mxPoint x="950" y="330" as="targetPoint" />
          </mxGeometry>
        </mxCell>
        <mxCell id="fLtBAiW2MONKm0dWIwBf-69" value="" style="endArrow=none;html=1;rounded=0;exitX=1;exitY=0.5;exitDx=0;exitDy=0;entryX=0;entryY=0.5;entryDx=0;entryDy=0;" edge="1" parent="1" source="fLtBAiW2MONKm0dWIwBf-4" target="fLtBAiW2MONKm0dWIwBf-68">
          <mxGeometry relative="1" as="geometry">
            <mxPoint x="678" y="380" as="sourcePoint" />
            <mxPoint x="860" y="380" as="targetPoint" />
          </mxGeometry>
        </mxCell>
        <mxCell id="fLtBAiW2MONKm0dWIwBf-68" value="handles&amp;nbsp;" style="shape=rhombus;perimeter=rhombusPerimeter;whiteSpace=wrap;html=1;align=center;" vertex="1" parent="1">
          <mxGeometry x="707" y="350" width="120" height="60" as="geometry" />
        </mxCell>
        <mxCell id="fLtBAiW2MONKm0dWIwBf-70" value="Customer" style="whiteSpace=wrap;html=1;align=center;" vertex="1" parent="1">
          <mxGeometry x="1191" y="360" width="100" height="40" as="geometry" />
        </mxCell>
        <mxCell id="fLtBAiW2MONKm0dWIwBf-71" value="" style="endArrow=none;html=1;rounded=0;exitX=1;exitY=0.5;exitDx=0;exitDy=0;entryX=0;entryY=0.5;entryDx=0;entryDy=0;" edge="1" parent="1" source="fLtBAiW2MONKm0dWIwBf-72" target="fLtBAiW2MONKm0dWIwBf-70">
          <mxGeometry relative="1" as="geometry">
            <mxPoint x="870" y="330" as="sourcePoint" />
            <mxPoint x="1030" y="330" as="targetPoint" />
          </mxGeometry>
        </mxCell>
        <mxCell id="fLtBAiW2MONKm0dWIwBf-73" value="" style="endArrow=none;html=1;rounded=0;exitX=1;exitY=0.5;exitDx=0;exitDy=0;entryX=0;entryY=0.5;entryDx=0;entryDy=0;" edge="1" parent="1" source="fLtBAiW2MONKm0dWIwBf-46" target="fLtBAiW2MONKm0dWIwBf-72">
          <mxGeometry relative="1" as="geometry">
            <mxPoint x="960" y="380" as="sourcePoint" />
            <mxPoint x="1110" y="380" as="targetPoint" />
          </mxGeometry>
        </mxCell>
        <mxCell id="fLtBAiW2MONKm0dWIwBf-72" value="takes" style="shape=rhombus;perimeter=rhombusPerimeter;whiteSpace=wrap;html=1;align=center;" vertex="1" parent="1">
          <mxGeometry x="1020" y="350" width="120" height="60" as="geometry" />
        </mxCell>
        <mxCell id="fLtBAiW2MONKm0dWIwBf-74" value="Name" style="ellipse;whiteSpace=wrap;html=1;align=center;" vertex="1" parent="1">
          <mxGeometry x="1141" y="200" width="100" height="40" as="geometry" />
        </mxCell>
        <mxCell id="fLtBAiW2MONKm0dWIwBf-75" value="CustomerID" style="ellipse;whiteSpace=wrap;html=1;align=center;fontStyle=4;" vertex="1" parent="1">
          <mxGeometry x="1091" y="260" width="100" height="40" as="geometry" />
        </mxCell>
        <mxCell id="fLtBAiW2MONKm0dWIwBf-76" value="" style="endArrow=none;html=1;rounded=0;exitX=0.5;exitY=1;exitDx=0;exitDy=0;entryX=0.5;entryY=0;entryDx=0;entryDy=0;" edge="1" parent="1" source="fLtBAiW2MONKm0dWIwBf-75" target="fLtBAiW2MONKm0dWIwBf-70">
          <mxGeometry relative="1" as="geometry">
            <mxPoint x="1020" y="410" as="sourcePoint" />
            <mxPoint x="1180" y="410" as="targetPoint" />
          </mxGeometry>
        </mxCell>
        <mxCell id="fLtBAiW2MONKm0dWIwBf-77" value="" style="endArrow=none;html=1;rounded=0;exitX=0.43;exitY=0.95;exitDx=0;exitDy=0;exitPerimeter=0;entryX=0.5;entryY=0;entryDx=0;entryDy=0;" edge="1" parent="1" source="fLtBAiW2MONKm0dWIwBf-74" target="fLtBAiW2MONKm0dWIwBf-70">
          <mxGeometry relative="1" as="geometry">
            <mxPoint x="1020" y="410" as="sourcePoint" />
            <mxPoint x="1180" y="410" as="targetPoint" />
          </mxGeometry>
        </mxCell>
        <mxCell id="fLtBAiW2MONKm0dWIwBf-78" value="E-Mail" style="ellipse;whiteSpace=wrap;html=1;align=center;" vertex="1" parent="1">
          <mxGeometry x="1220" y="240" width="100" height="40" as="geometry" />
        </mxCell>
        <mxCell id="fLtBAiW2MONKm0dWIwBf-81" value="" style="endArrow=none;html=1;rounded=0;entryX=0.5;entryY=1;entryDx=0;entryDy=0;" edge="1" parent="1" target="fLtBAiW2MONKm0dWIwBf-78">
          <mxGeometry relative="1" as="geometry">
            <mxPoint x="1240" y="360" as="sourcePoint" />
            <mxPoint x="1180" y="410" as="targetPoint" />
          </mxGeometry>
        </mxCell>
        <mxCell id="fLtBAiW2MONKm0dWIwBf-82" value="Employee" style="whiteSpace=wrap;html=1;align=center;" vertex="1" parent="1">
          <mxGeometry x="578" y="490" width="100" height="40" as="geometry" />
        </mxCell>
        <mxCell id="fLtBAiW2MONKm0dWIwBf-83" value="" style="endArrow=none;html=1;rounded=0;exitX=0.5;exitY=1;exitDx=0;exitDy=0;entryX=0.5;entryY=0;entryDx=0;entryDy=0;" edge="1" parent="1" source="fLtBAiW2MONKm0dWIwBf-4" target="fLtBAiW2MONKm0dWIwBf-82">
          <mxGeometry relative="1" as="geometry">
            <mxPoint x="870" y="410" as="sourcePoint" />
            <mxPoint x="1030" y="410" as="targetPoint" />
          </mxGeometry>
        </mxCell>
        <mxCell id="fLtBAiW2MONKm0dWIwBf-84" value="1" style="text;html=1;align=center;verticalAlign=middle;resizable=0;points=[];autosize=1;strokeColor=none;fillColor=none;" vertex="1" parent="1">
          <mxGeometry x="1155" y="358" width="30" height="30" as="geometry" />
        </mxCell>
        <mxCell id="fLtBAiW2MONKm0dWIwBf-85" value="0..*" style="text;html=1;align=center;verticalAlign=middle;resizable=0;points=[];autosize=1;strokeColor=none;fillColor=none;" vertex="1" parent="1">
          <mxGeometry x="970" y="350" width="40" height="30" as="geometry" />
        </mxCell>
        <mxCell id="fLtBAiW2MONKm0dWIwBf-86" value="0..*" style="text;html=1;align=center;verticalAlign=middle;resizable=0;points=[];autosize=1;strokeColor=none;fillColor=none;" vertex="1" parent="1">
          <mxGeometry x="820" y="348" width="40" height="30" as="geometry" />
        </mxCell>
        <mxCell id="fLtBAiW2MONKm0dWIwBf-87" value="1" style="text;html=1;align=center;verticalAlign=middle;resizable=0;points=[];autosize=1;strokeColor=none;fillColor=none;" vertex="1" parent="1">
          <mxGeometry x="680" y="350" width="30" height="30" as="geometry" />
        </mxCell>
        <mxCell id="fLtBAiW2MONKm0dWIwBf-88" value="address" style="ellipse;whiteSpace=wrap;html=1;align=center;" vertex="1" parent="1">
          <mxGeometry x="1320" y="270" width="100" height="40" as="geometry" />
        </mxCell>
        <mxCell id="fLtBAiW2MONKm0dWIwBf-89" value="" style="endArrow=none;html=1;rounded=0;exitX=0.5;exitY=1;exitDx=0;exitDy=0;entryX=0.5;entryY=0;entryDx=0;entryDy=0;" edge="1" parent="1" source="fLtBAiW2MONKm0dWIwBf-88" target="fLtBAiW2MONKm0dWIwBf-70">
          <mxGeometry relative="1" as="geometry">
            <mxPoint x="1040" y="390" as="sourcePoint" />
            <mxPoint x="1200" y="390" as="targetPoint" />
          </mxGeometry>
        </mxCell>
        <mxCell id="fLtBAiW2MONKm0dWIwBf-90" value="1" style="text;html=1;align=center;verticalAlign=middle;resizable=0;points=[];autosize=1;strokeColor=none;fillColor=none;" vertex="1" parent="1">
          <mxGeometry x="535" y="348" width="30" height="30" as="geometry" />
        </mxCell>
        <mxCell id="fLtBAiW2MONKm0dWIwBf-91" value="1" style="text;html=1;align=center;verticalAlign=middle;resizable=0;points=[];autosize=1;strokeColor=none;fillColor=none;" vertex="1" parent="1">
          <mxGeometry x="195" y="348" width="30" height="30" as="geometry" />
        </mxCell>
        <mxCell id="fLtBAiW2MONKm0dWIwBf-92" value="EmployeeId" style="ellipse;whiteSpace=wrap;html=1;align=center;fontStyle=4;" vertex="1" parent="1">
          <mxGeometry x="440" y="600" width="100" height="40" as="geometry" />
        </mxCell>
        <mxCell id="fLtBAiW2MONKm0dWIwBf-93" value="" style="endArrow=none;html=1;rounded=0;exitX=0.5;exitY=1;exitDx=0;exitDy=0;entryX=0.5;entryY=0;entryDx=0;entryDy=0;" edge="1" parent="1" source="fLtBAiW2MONKm0dWIwBf-82" target="fLtBAiW2MONKm0dWIwBf-92">
          <mxGeometry relative="1" as="geometry">
            <mxPoint x="670" y="460" as="sourcePoint" />
            <mxPoint x="830" y="460" as="targetPoint" />
          </mxGeometry>
        </mxCell>
        <mxCell id="fLtBAiW2MONKm0dWIwBf-94" value="" style="endArrow=none;html=1;rounded=0;exitX=0.5;exitY=1;exitDx=0;exitDy=0;" edge="1" parent="1" source="fLtBAiW2MONKm0dWIwBf-82" target="fLtBAiW2MONKm0dWIwBf-95">
          <mxGeometry relative="1" as="geometry">
            <mxPoint x="670" y="460" as="sourcePoint" />
            <mxPoint x="630" y="580" as="targetPoint" />
          </mxGeometry>
        </mxCell>
        <mxCell id="fLtBAiW2MONKm0dWIwBf-95" value="Role" style="ellipse;whiteSpace=wrap;html=1;align=center;" vertex="1" parent="1">
          <mxGeometry x="550" y="600" width="100" height="40" as="geometry" />
        </mxCell>
        <mxCell id="fLtBAiW2MONKm0dWIwBf-96" value="" style="endArrow=none;html=1;rounded=0;" edge="1" parent="1" target="fLtBAiW2MONKm0dWIwBf-97">
          <mxGeometry relative="1" as="geometry">
            <mxPoint x="630" y="530" as="sourcePoint" />
            <mxPoint x="710" y="600" as="targetPoint" />
          </mxGeometry>
        </mxCell>
        <mxCell id="fLtBAiW2MONKm0dWIwBf-97" value="salary" style="ellipse;whiteSpace=wrap;html=1;align=center;" vertex="1" parent="1">
          <mxGeometry x="670" y="600" width="100" height="40" as="geometry" />
        </mxCell>
        <mxCell id="fLtBAiW2MONKm0dWIwBf-99" value="isA" style="triangle;whiteSpace=wrap;html=1;direction=north;rotation=0;" vertex="1" parent="1">
          <mxGeometry x="980" y="650" width="80" height="40" as="geometry" />
        </mxCell>
        <mxCell id="fLtBAiW2MONKm0dWIwBf-100" value="" style="endArrow=none;html=1;rounded=0;exitX=1;exitY=0.75;exitDx=0;exitDy=0;entryX=0.5;entryY=0;entryDx=0;entryDy=0;" edge="1" parent="1" source="fLtBAiW2MONKm0dWIwBf-82" target="fLtBAiW2MONKm0dWIwBf-99">
          <mxGeometry relative="1" as="geometry">
            <mxPoint x="670" y="460" as="sourcePoint" />
            <mxPoint x="830" y="460" as="targetPoint" />
          </mxGeometry>
        </mxCell>
        <mxCell id="fLtBAiW2MONKm0dWIwBf-101" value="" style="endArrow=none;html=1;rounded=0;exitX=0.5;exitY=1;exitDx=0;exitDy=0;entryX=0.5;entryY=1;entryDx=0;entryDy=0;" edge="1" parent="1" source="fLtBAiW2MONKm0dWIwBf-70" target="fLtBAiW2MONKm0dWIwBf-99">
          <mxGeometry relative="1" as="geometry">
            <mxPoint x="670" y="460" as="sourcePoint" />
            <mxPoint x="830" y="460" as="targetPoint" />
          </mxGeometry>
        </mxCell>
        <mxCell id="fLtBAiW2MONKm0dWIwBf-102" value="Person" style="whiteSpace=wrap;html=1;align=center;" vertex="1" parent="1">
          <mxGeometry x="980" y="790" width="100" height="40" as="geometry" />
        </mxCell>
        <mxCell id="fLtBAiW2MONKm0dWIwBf-104" value="" style="endArrow=none;html=1;rounded=0;exitX=0;exitY=0.5;exitDx=0;exitDy=0;entryX=0.5;entryY=0;entryDx=0;entryDy=0;" edge="1" parent="1" source="fLtBAiW2MONKm0dWIwBf-99" target="fLtBAiW2MONKm0dWIwBf-102">
          <mxGeometry relative="1" as="geometry">
            <mxPoint x="670" y="470" as="sourcePoint" />
            <mxPoint x="830" y="470" as="targetPoint" />
          </mxGeometry>
        </mxCell>
        <mxCell id="fLtBAiW2MONKm0dWIwBf-106" value="" style="endArrow=none;html=1;rounded=0;entryX=0.59;entryY=-0.05;entryDx=0;entryDy=0;entryPerimeter=0;" edge="1" parent="1" source="fLtBAiW2MONKm0dWIwBf-102">
          <mxGeometry relative="1" as="geometry">
            <mxPoint x="780" y="580" as="sourcePoint" />
            <mxPoint x="889" y="878" as="targetPoint" />
          </mxGeometry>
        </mxCell>
        <mxCell id="fLtBAiW2MONKm0dWIwBf-109" value="AssociationType" style="ellipse;whiteSpace=wrap;html=1;align=center;fontStyle=4;" vertex="1" parent="1">
          <mxGeometry x="820" y="870" width="100" height="40" as="geometry" />
        </mxCell>
        <mxCell id="fLtBAiW2MONKm0dWIwBf-112" value="address" style="ellipse;whiteSpace=wrap;html=1;align=center;" vertex="1" parent="1">
          <mxGeometry x="930" y="900" width="100" height="40" as="geometry" />
        </mxCell>
        <mxCell id="fLtBAiW2MONKm0dWIwBf-113" value="E-Mail" style="ellipse;whiteSpace=wrap;html=1;align=center;" vertex="1" parent="1">
          <mxGeometry x="1055" y="900" width="100" height="40" as="geometry" />
        </mxCell>
        <mxCell id="fLtBAiW2MONKm0dWIwBf-114" value="Name" style="ellipse;whiteSpace=wrap;html=1;align=center;" vertex="1" parent="1">
          <mxGeometry x="1160" y="860" width="100" height="40" as="geometry" />
        </mxCell>
        <mxCell id="fLtBAiW2MONKm0dWIwBf-115" value="" style="endArrow=none;html=1;rounded=0;exitX=0.5;exitY=1;exitDx=0;exitDy=0;entryX=0.59;entryY=0;entryDx=0;entryDy=0;entryPerimeter=0;" edge="1" parent="1" source="fLtBAiW2MONKm0dWIwBf-102" target="fLtBAiW2MONKm0dWIwBf-112">
          <mxGeometry relative="1" as="geometry">
            <mxPoint x="900" y="580" as="sourcePoint" />
            <mxPoint x="1060" y="580" as="targetPoint" />
          </mxGeometry>
        </mxCell>
        <mxCell id="fLtBAiW2MONKm0dWIwBf-116" value="" style="endArrow=none;html=1;rounded=0;exitX=0.5;exitY=1;exitDx=0;exitDy=0;" edge="1" parent="1" source="fLtBAiW2MONKm0dWIwBf-102" target="fLtBAiW2MONKm0dWIwBf-113">
          <mxGeometry relative="1" as="geometry">
            <mxPoint x="900" y="580" as="sourcePoint" />
            <mxPoint x="1060" y="580" as="targetPoint" />
          </mxGeometry>
        </mxCell>
        <mxCell id="fLtBAiW2MONKm0dWIwBf-117" value="" style="endArrow=none;html=1;rounded=0;exitX=0.07;exitY=0.35;exitDx=0;exitDy=0;exitPerimeter=0;" edge="1" parent="1" source="fLtBAiW2MONKm0dWIwBf-114" target="fLtBAiW2MONKm0dWIwBf-102">
          <mxGeometry relative="1" as="geometry">
            <mxPoint x="900" y="580" as="sourcePoint" />
            <mxPoint x="1060" y="580" as="targetPoint" />
          </mxGeometry>
        </mxCell>
      </root>
    </mxGraphModel>
  </diagram>
</mxfile>
